<svg xmlns="http://www.w3.org/2000/svg" viewBox="0 0 720 300" role="img" aria-labelledby="seq02-title seq02-desc">
  <title id="seq02-title">02 영속성 경계 지도</title>
  <desc id="seq02-desc">Request DTO가 Entity로 변환되고 Repository를 지나 프로세스 밖 MySQL row에 저장되는 지도</desc>
  <metadata>Source: A&amp;I Backend Visual Lab; License: project-local educational asset; redistribution follows repository terms.</metadata>
  <defs>
    <marker id="arrow" viewBox="0 0 10 10" refX="9" refY="5" markerWidth="7" markerHeight="7" orient="auto-start-reverse"><path d="M0 0 10 5 0 10z" fill="#2955E4"/></marker>
    <marker id="arrow-teal" viewBox="0 0 10 10" refX="9" refY="5" markerWidth="7" markerHeight="7" orient="auto-start-reverse"><path d="M0 0 10 5 0 10z" fill="#176F72"/></marker>
    <style>.frame{fill:#fff;stroke:#6f82b8;stroke-width:2}.node{fill:#fff;stroke:#6f82b8;stroke-width:2}.soft{fill:#ecfbfa;stroke:#176f72;stroke-width:2}.warning{fill:#eef4ff;stroke:#2955e4;stroke-width:2}.boundary{fill:#eaf0fb;stroke:#6f82b8;stroke-width:2;stroke-dasharray:7 5}.boundary-strong{fill:#ecfbfa;stroke:#176f72;stroke-width:3}.arrow{fill:none;stroke:#2955e4;stroke-width:3;marker-end:url(#arrow)}.return{fill:none;stroke:#176f72;stroke-width:3;marker-end:url(#arrow-teal)}.stop{fill:none;stroke:#2955e4;stroke-width:2;stroke-dasharray:6 4}.divider{stroke:#c9d6f3;stroke-width:2}.title{fill:#111b3f;font:700 26px system-ui,-apple-system,sans-serif;text-anchor:middle}.copy{fill:#4b587c;font:600 24px system-ui,-apple-system,sans-serif;text-anchor:middle}.label{fill:#0c2691;font:800 24px system-ui,-apple-system,sans-serif}.teal{fill:#176f72}</style>
  </defs>
  <rect width="720" height="300" fill="#F8F9FB"/>

  <rect x="20" y="20" width="680" height="260" rx="18" class="frame"/>
  <rect x="38" y="58" width="484" height="190" rx="14" class="boundary"/>
  <text x="58" y="92" class="label">애플리케이션</text>
  <rect x="50" y="118" width="156" height="64" rx="10" class="node"/><text x="128" y="158" class="title">Request DTO</text>
  <path d="M206 150h24" class="arrow"/>
  <rect x="230" y="118" width="110" height="64" rx="10" class="node"/><text x="285" y="158" class="title">Entity</text>
  <path d="M340 150h20" class="arrow"/>
  <rect x="360" y="118" width="148" height="64" rx="10" class="node"/><text x="434" y="158" class="title">Repository</text>
  <path d="M508 150h46" class="arrow"/>
  <text x="548" y="92" class="label">영속 저장소</text>
  <rect x="554" y="110" width="128" height="80" rx="10" class="soft"/>
  <text x="618" y="145" class="title">MySQL</text>
  <text x="618" y="174" class="copy">row 유지</text>
  <text x="280" y="222" class="copy">DTO → Entity → save</text>
</svg>
