<svg xmlns="http://www.w3.org/2000/svg" viewBox="0 0 720 300" role="img" aria-labelledby="seq03-title seq03-desc">
  <title id="seq03-title">03 요청 실패 게이트 지도</title>
  <desc id="seq03-desc">요청이 Validation과 Service, Repository를 지나며 400과 404에서 각각 멈추는 지도</desc>
  <metadata>Source: A&amp;I Backend Visual Lab; License: project-local educational asset; redistribution follows repository terms.</metadata>
  <defs>
    <marker id="arrow" viewBox="0 0 10 10" refX="9" refY="5" markerWidth="7" markerHeight="7" orient="auto-start-reverse"><path d="M0 0 10 5 0 10z" fill="#2955E4"/></marker>
    <marker id="arrow-teal" viewBox="0 0 10 10" refX="9" refY="5" markerWidth="7" markerHeight="7" orient="auto-start-reverse"><path d="M0 0 10 5 0 10z" fill="#176F72"/></marker>
    <style>.frame{fill:#fff;stroke:#6f82b8;stroke-width:2}.node{fill:#fff;stroke:#6f82b8;stroke-width:2}.soft{fill:#ecfbfa;stroke:#176f72;stroke-width:2}.warning{fill:#eef4ff;stroke:#2955e4;stroke-width:2}.boundary{fill:#eaf0fb;stroke:#6f82b8;stroke-width:2;stroke-dasharray:7 5}.boundary-strong{fill:#ecfbfa;stroke:#176f72;stroke-width:3}.arrow{fill:none;stroke:#2955e4;stroke-width:3;marker-end:url(#arrow)}.return{fill:none;stroke:#176f72;stroke-width:3;marker-end:url(#arrow-teal)}.stop{fill:none;stroke:#2955e4;stroke-width:2;stroke-dasharray:6 4}.divider{stroke:#c9d6f3;stroke-width:2}.title{fill:#111b3f;font:700 26px system-ui,-apple-system,sans-serif;text-anchor:middle}.copy{fill:#4b587c;font:600 24px system-ui,-apple-system,sans-serif;text-anchor:middle}.label{fill:#0c2691;font:800 24px system-ui,-apple-system,sans-serif}.teal{fill:#176f72}</style>
  </defs>
  <rect width="720" height="300" fill="#F8F9FB"/>

  <rect x="20" y="20" width="680" height="260" rx="18" class="frame"/>
  <text x="42" y="58" class="label">성공 경로</text>
  <rect x="38" y="92" width="118" height="60" rx="10" class="node"/><text x="97" y="130" class="title">Request</text>
  <path d="M156 122h36" class="arrow"/>
  <rect x="192" y="92" width="142" height="60" rx="10" class="node"/><text x="263" y="130" class="title">Validation</text>
  <path d="M334 122h36" class="arrow"/>
  <rect x="370" y="92" width="112" height="60" rx="10" class="node"/><text x="426" y="130" class="title">Service</text>
  <path d="M482 122h36" class="arrow"/>
  <rect x="518" y="92" width="152" height="60" rx="10" class="soft"/><text x="594" y="130" class="title">Repository</text>
  <path d="M263 152v42" class="stop"/>
  <rect x="170" y="194" width="186" height="50" rx="9" class="warning"/><text x="263" y="227" class="title">400 · 형식 오류</text>
  <path d="M594 152v42" class="stop"/>
  <rect x="500" y="194" width="188" height="50" rx="9" class="warning"/><text x="594" y="227" class="title">404 · 대상 없음</text>
</svg>
